<svg width="19" height="21" viewBox="0 0 19 21" fill="none" xmlns="http://www.w3.org/2000/svg">
<path d="M13.8721 12.2614H5.93607C5.67298 12.2614 5.42066 12.3679 5.23462 12.5573C5.04859 12.7467 4.94407 13.0036 4.94407 13.2715C4.94407 13.5394 5.04859 13.7963 5.23462 13.9857C5.42066 14.1752 5.67298 14.2816 5.93607 14.2816H13.8721C14.1352 14.2816 14.3875 14.1752 14.5735 13.9857C14.7596 13.7963 14.8641 13.5394 14.8641 13.2715C14.8641 13.0036 14.7596 12.7467 14.5735 12.5573C14.3875 12.3679 14.1352 12.2614 13.8721 12.2614ZM13.8721 8.22117H7.92007C7.65698 8.22117 7.40466 8.32759 7.21862 8.51701C7.03259 8.70644 6.92807 8.96335 6.92807 9.23124C6.92807 9.49913 7.03259 9.75604 7.21862 9.94546C7.40466 10.1349 7.65698 10.2413 7.92007 10.2413H13.8721C14.1352 10.2413 14.3875 10.1349 14.5735 9.94546C14.7596 9.75604 14.8641 9.49913 14.8641 9.23124C14.8641 8.96335 14.7596 8.70644 14.5735 8.51701C14.3875 8.32759 14.1352 8.22117 13.8721 8.22117ZM17.8401 2.16076H14.8641V1.15069C14.8641 0.882806 14.7596 0.625892 14.5735 0.436467C14.3875 0.247043 14.1352 0.140625 13.8721 0.140625C13.609 0.140625 13.3567 0.247043 13.1706 0.436467C12.9846 0.625892 12.8801 0.882806 12.8801 1.15069V2.16076H10.8961V1.15069C10.8961 0.882806 10.7916 0.625892 10.6055 0.436467C10.4195 0.247043 10.1672 0.140625 9.90407 0.140625C9.64098 0.140625 9.38866 0.247043 9.20262 0.436467C9.01659 0.625892 8.91207 0.882806 8.91207 1.15069V2.16076H6.92807V1.15069C6.92807 0.882806 6.82356 0.625892 6.63752 0.436467C6.45149 0.247043 6.19917 0.140625 5.93607 0.140625C5.67298 0.140625 5.42066 0.247043 5.23462 0.436467C5.04859 0.625892 4.94407 0.882806 4.94407 1.15069V2.16076H1.96807C1.70498 2.16076 1.45266 2.26718 1.26662 2.4566C1.08059 2.64603 0.976074 2.90294 0.976074 3.17083V17.3118C0.976074 18.1154 1.28962 18.8862 1.84772 19.4545C2.40583 20.0227 3.16279 20.342 3.95207 20.342H15.8561C16.6454 20.342 17.4023 20.0227 17.9604 19.4545C18.5185 18.8862 18.8321 18.1154 18.8321 17.3118V3.17083C18.8321 2.90294 18.7276 2.64603 18.5415 2.4566C18.3555 2.26718 18.1032 2.16076 17.8401 2.16076ZM16.8481 17.3118C16.8481 17.5797 16.7436 17.8366 16.5575 18.026C16.3715 18.2154 16.1192 18.3219 15.8561 18.3219H3.95207C3.68898 18.3219 3.43666 18.2154 3.25062 18.026C3.06459 17.8366 2.96007 17.5797 2.96007 17.3118V4.1809H4.94407V5.19097C4.94407 5.45885 5.04859 5.71577 5.23462 5.90519C5.42066 6.09462 5.67298 6.20103 5.93607 6.20103C6.19917 6.20103 6.45149 6.09462 6.63752 5.90519C6.82356 5.71577 6.92807 5.45885 6.92807 5.19097V4.1809H8.91207V5.19097C8.91207 5.45885 9.01659 5.71577 9.20262 5.90519C9.38866 6.09462 9.64098 6.20103 9.90407 6.20103C10.1672 6.20103 10.4195 6.09462 10.6055 5.90519C10.7916 5.71577 10.8961 5.45885 10.8961 5.19097V4.1809H12.8801V5.19097C12.8801 5.45885 12.9846 5.71577 13.1706 5.90519C13.3567 6.09462 13.609 6.20103 13.8721 6.20103C14.1352 6.20103 14.3875 6.09462 14.5735 5.90519C14.7596 5.71577 14.8641 5.45885 14.8641 5.19097V4.1809H16.8481V17.3118Z" fill="#88889D"/>
</svg>
