<svg width="25" height="25" viewBox="0 0 25 25" fill="none" xmlns="http://www.w3.org/2000/svg">
<path fill-rule="evenodd" clip-rule="evenodd" d="M14.8284 17.0312L7.75736 9.96017L4.57538 13.1421C2.62276 15.0948 2.62276 18.2606 4.57538 20.2132C6.528 22.1658 9.69383 22.1658 11.6465 20.2132L14.8284 17.0312ZM13.0607 21.6274C10.327 24.3611 5.89484 24.3611 3.16117 21.6274C0.427499 18.8938 0.427499 14.4616 3.16117 11.7279L10.9393 3.94976C13.673 1.21609 18.1052 1.21609 20.8388 3.94976C23.5725 6.68343 23.5725 11.1156 20.8388 13.8493L13.0607 21.6274ZM9.17158 8.54595L12.3536 5.36397C14.3062 3.41135 17.472 3.41135 19.4246 5.36397C21.3772 7.31659 21.3772 10.4824 19.4246 12.435L16.2426 15.617L9.17158 8.54595Z" fill="#88889D"/>
</svg>
