<svg width="19" height="21" viewBox="0 0 19 21" fill="none" xmlns="http://www.w3.org/2000/svg">
<path opacity="0.8" d="M17.0532 6.19151L11.0372 0.878557C10.4858 0.381649 9.77181 0.106934 9.03191 0.106934C8.29201 0.106934 7.57806 0.381649 7.02657 0.878557L1.01057 6.19151C0.692096 6.47845 0.437951 6.83044 0.265063 7.22405C0.0921754 7.61766 0.00451116 8.04386 0.00790755 8.47427V17.3023C0.00790755 18.1059 0.324821 18.8767 0.88893 19.4449C1.45304 20.0132 2.21814 20.3325 3.01591 20.3325H15.0479C15.8457 20.3325 16.6108 20.0132 17.1749 19.4449C17.739 18.8767 18.0559 18.1059 18.0559 17.3023V8.46417C18.0579 8.03546 17.9695 7.61121 17.7967 7.21944C17.6238 6.82768 17.3704 6.47732 17.0532 6.19151ZM11.0372 18.3123H7.02657V13.262C7.02657 12.9941 7.13221 12.7372 7.32025 12.5478C7.50829 12.3583 7.76332 12.2519 8.02924 12.2519H10.0346C10.3005 12.2519 10.5555 12.3583 10.7436 12.5478C10.9316 12.7372 11.0372 12.9941 11.0372 13.262V18.3123ZM16.0506 17.3023C16.0506 17.5702 15.9449 17.8271 15.7569 18.0165C15.5689 18.2059 15.3138 18.3123 15.0479 18.3123H13.0426V13.262C13.0426 12.4583 12.7257 11.6876 12.1616 11.1193C11.5974 10.551 10.8323 10.2318 10.0346 10.2318H8.02924C7.23147 10.2318 6.46637 10.551 5.90226 11.1193C5.33815 11.6876 5.02124 12.4583 5.02124 13.262V18.3123H3.01591C2.74998 18.3123 2.49495 18.2059 2.30692 18.0165C2.11888 17.8271 2.01324 17.5702 2.01324 17.3023V8.46417C2.01342 8.32075 2.04392 8.17902 2.1027 8.0484C2.16148 7.91778 2.24719 7.80127 2.35415 7.70662L8.37015 2.40376C8.55312 2.24183 8.78835 2.15252 9.03191 2.15252C9.27546 2.15252 9.51069 2.24183 9.69367 2.40376L15.7097 7.70662C15.8166 7.80127 15.9023 7.91778 15.9611 8.0484C16.0199 8.17902 16.0504 8.32075 16.0506 8.46417V17.3023Z" fill="black"/>
</svg>
