<svg width="21" height="21" viewBox="0 0 21 21" fill="none" xmlns="http://www.w3.org/2000/svg">
<path opacity="0.8" d="M13.752 10.9489C14.735 10.1698 15.4525 9.10138 15.8047 7.89234C16.1569 6.68331 16.1262 5.39376 15.717 4.2031C15.3078 3.01243 14.5404 1.97986 13.5215 1.24904C12.5026 0.518218 11.2829 0.125488 10.0321 0.125488C8.78133 0.125488 7.56165 0.518218 6.54276 1.24904C5.52386 1.97986 4.75642 3.01243 4.3472 4.2031C3.93798 5.39376 3.90733 6.68331 4.25952 7.89234C4.6117 9.10138 5.32921 10.1698 6.31221 10.9489C4.62781 11.6287 3.15811 12.7562 2.0598 14.2113C0.961482 15.6664 0.275723 17.3944 0.075628 19.2112C0.0611441 19.3439 0.0727369 19.4781 0.109744 19.6062C0.146751 19.7344 0.208449 19.8539 0.291313 19.958C0.458666 20.1683 0.702078 20.3029 0.968001 20.3324C1.23393 20.3619 1.50058 20.2837 1.7093 20.1151C1.91802 19.9465 2.05171 19.7013 2.08096 19.4334C2.30113 17.459 3.23572 15.6354 4.70616 14.3112C6.17661 12.987 8.07981 12.2549 10.0522 12.2549C12.0245 12.2549 13.9277 12.987 15.3982 14.3112C16.8686 15.6354 17.8032 17.459 18.0234 19.4334C18.0506 19.6816 18.1682 19.9109 18.3533 20.0769C18.5385 20.2429 18.7782 20.3339 19.026 20.3324H19.1363C19.3992 20.3019 19.6394 20.1681 19.8047 19.9599C19.9699 19.7518 20.0469 19.4863 20.0187 19.2213C19.8176 17.3994 19.1282 15.6669 18.0242 14.2096C16.9203 12.7523 15.4434 11.6251 13.752 10.9489ZM10.0321 10.2317C9.23887 10.2317 8.46345 9.99476 7.8039 9.55081C7.14435 9.10686 6.63029 8.47586 6.32674 7.73759C6.02318 6.99933 5.94375 6.18697 6.09851 5.40323C6.25326 4.61949 6.63524 3.89959 7.19614 3.33454C7.75704 2.7695 8.47167 2.3847 9.24967 2.22881C10.0277 2.07291 10.8341 2.15292 11.5669 2.45872C12.2998 2.76452 12.9262 3.28237 13.3669 3.94679C13.8076 4.61121 14.0428 5.39236 14.0428 6.19145C14.0428 7.263 13.6202 8.29066 12.8681 9.04835C12.1159 9.80605 11.0958 10.2317 10.0321 10.2317Z" fill="#88889D"/>
</svg>
